<?xml version="1.0" encoding="UTF-8" standalone="no"?>
<svg width="240px" height="50px" viewBox="0 0 240 50" version="1.1" xmlns="http://www.w3.org/2000/svg" xmlns:xlink="http://www.w3.org/1999/xlink" xmlns:sketch="http://www.bohemiancoding.com/sketch/ns">
    <!-- Generator: Sketch 3.5.1 (25234) - http://www.bohemiancoding.com/sketch -->
    <title>Logotype Seul Copy 2</title>
    <desc>Created with Sketch.</desc>
    <defs></defs>
    <g id="Welcome" stroke="none" stroke-width="1" fill="none" fill-rule="evenodd" sketch:type="MSPage">
        <g id="Blaaast-Desktop-TEST" sketch:type="MSArtboardGroup" transform="translate(-600.000000, -355.000000)" fill="#FFFFFF">
            <g id="HEADER" sketch:type="MSLayerGroup" transform="translate(-111.000000, 0.000000)">
                <g id="BG" sketch:type="MSShapeGroup">
                    <g id="CONTENT" transform="translate(404.000000, 355.000000)">
                        <g id="LOGO-Copy" transform="translate(307.000000, 0.000000)">
                            <g id="Logotype-Seul-Copy-2">
                                <path d="M38.5415838,37.5380662 C38.5415838,39.5809644 38.1257503,41.357371 37.2940708,42.8673392 C36.4623914,44.3773074 35.3243208,45.6318945 33.8798249,46.6311382 C32.435329,47.6303819 30.7501091,48.3853546 28.8241146,48.8960792 C26.8981201,49.4068037 24.8627246,49.6621622 22.7178671,49.6621622 L0,49.6621622 L0,2.36486486 L25.9351373,2.36486486 C27.5547236,2.36486486 29.0210838,2.72014617 30.3342618,3.43071945 C31.6474399,4.14129273 32.7636245,5.06280363 33.6828492,6.19527979 C34.6020738,7.32775595 35.313368,8.61565069 35.8167529,10.0590027 C36.3201378,11.5023546 36.5718265,12.9789926 36.5718265,14.4889608 C36.5718265,16.7539131 36.0137342,18.885601 34.8975328,20.8840883 C33.7813315,22.8825757 32.1070545,24.3925212 29.8746518,25.4139703 C32.5447806,26.2133652 34.6567769,27.6344905 36.2107043,29.6773887 C37.7646317,31.7202868 38.5415838,34.3404865 38.5415838,37.5380662 L38.5415838,37.5380662 Z M27.5766017,35.3397411 C27.5766017,33.8741838 27.1607682,32.6306992 26.3290887,31.6092501 C25.4974093,30.587801 24.4468826,30.0770841 23.1774771,30.0770841 L10.7680064,30.0770841 L10.7680064,40.4025504 L22.7178671,40.4025504 C24.1185904,40.4025504 25.2785469,39.9362437 26.1977716,39.0036163 C27.1169962,38.0709889 27.5766017,36.8497094 27.5766017,35.3397411 L27.5766017,35.3397411 Z M10.7680064,11.6910925 L10.7680064,21.4836315 L21.339037,21.4836315 C22.5208973,21.4836315 23.571424,21.08394 24.4906486,20.2845451 C25.4098733,19.4851502 25.8694787,18.2416656 25.8694787,16.5540541 C25.8694787,14.999675 25.4645882,13.8006006 24.6547951,12.9567948 C23.8450019,12.1129891 22.8710761,11.6910925 21.7329885,11.6910925 L10.7680064,11.6910925 Z" id="B"></path>
                                <path d="M43.1197772,49.6621622 L43.1197772,2.36486486 L54.000413,2.36486486 L54.000413,40.0694709 L60.8356546,40.0694699 L55.2351229,49.6621614 L43.1197772,49.6621622 Z" id="L"></path>
                                <g id="Monogramme" transform="translate(61.169916, 0.000000)">
                                    <path d="M27.6547078,0 L55.3094156,49.3243243 L0,49.3243243 L27.6547078,0 Z M27.6547078,23.6756757 L35.5560529,37.4864865 L19.7533627,37.4864865 L27.6547078,23.6756757 Z" id="Triangle-1"></path>
                                    <path d="M60.9034099,49.3243243 L81.7604851,49.3243243 L54.1703073,0 L43.7035478,18.7119432 L50.3011604,30.4543996 L54.1703073,23.6756757 L62.0532153,37.4864865 L54.2522064,37.4864865 L60.9034099,49.3243243 Z" id="Triangle-1-Copy-2"></path>
                                    <path d="M87.6741836,49.3243243 L100.600167,49.3243243 L73.1124541,0 L66.6026366,11.6813046 L87.6741836,49.3243243 Z" id="Triangle-1-Copy-4"></path>
                                </g>
                                <path d="M186.011431,12.6119196 C186.011431,12.6119196 182.313961,11.9238424 179.065305,11.62589 C175.816649,11.3279375 174.198913,11.1190493 172.799133,11.1190493 C170.961921,11.1190493 169.715263,11.765058 168.731043,12.4323376 C167.746823,13.0996172 167.25472,14.0782793 167.25472,15.3683533 C167.25472,16.1690889 167.473432,16.8363585 167.910864,17.3701822 C168.348295,17.9040059 168.971625,18.3822158 169.780873,18.8048262 C170.590121,19.2274367 171.596197,19.6166773 172.799133,19.9725598 C174.002069,20.3284422 175.390893,20.728804 176.965645,21.1736571 C179.196545,21.7964514 181.208698,22.4748422 183.002167,23.2088498 C184.795635,23.9428574 186.326621,24.8547926 187.595172,25.9446826 C188.863722,27.0345727 189.836992,28.3579908 190.515011,29.9149766 C191.193029,31.4719624 191.532033,33.3403174 191.532033,35.5200975 C191.532033,38.1892161 191.039931,40.4468116 190.05571,42.292952 C189.07149,44.1390923 187.770151,45.6293278 186.151656,46.7637032 C184.53316,47.8980785 182.66317,48.7210444 180.541628,49.2326255 C178.420086,49.7442065 176.243898,49.9974206 174.012999,49.9999932 C171.438131,50.0029625 167.072075,49.0314617 167.072075,49.0314617 L160.673697,37.2970657 C160.892412,37.5194922 167.145354,38.9009617 168.895079,39.3903001 C170.644804,39.8796385 172.416374,40.124304 174.209842,40.124304 C178.015494,40.124304 179.918292,38.945461 179.918292,36.5877396 C179.918292,35.6980334 179.633965,34.9640368 179.065305,34.3857278 C178.496644,33.8074188 177.70928,33.2847243 176.703188,32.8176285 C175.697096,32.3505328 174.516049,31.9168075 173.160012,31.5164397 C171.803975,31.116072 170.316732,30.6712255 168.698236,30.1818871 C166.554823,29.5146075 164.695768,28.7917321 163.121015,28.0132392 C161.546263,27.2347463 160.233989,26.3339323 159.184154,25.3107702 C158.134318,24.2876081 157.35789,23.108765 156.854844,21.7742058 C156.351798,20.4396465 156.100279,18.882684 156.100279,17.1032717 C156.100279,14.6120944 156.559574,12.4101046 157.47818,10.4972363 C158.396786,8.58436804 159.643446,6.97179978 161.218199,5.65948317 C162.792951,4.34716655 164.619199,3.35738327 166.696998,2.69010364 C168.774796,2.022824 170.972855,1.68918919 173.291241,1.68918919 C174.95348,1.68918919 176.571951,1.84488544 178.146704,2.1562826 C179.721456,2.46767976 181.033735,3.04668113 181.033735,3.04668113 L186.011431,12.6119196 Z" id="S-Copy"></path>
                                <path d="M225.626741,11.6197183 L211.355944,11.6197183 L211.355944,49.3243243 L200.520709,49.3243243 L200.520709,11.6197183 L191.31452,11.6197185 L186.183844,2.02702703 L225.626741,2.02702703 L225.626741,11.6197183 Z" id="T"></path>
                                <path d="M229.303621,34.4594595 L229.303621,1.68918919 L240,1.68918919 L240,34.4594595 L229.303621,34.4594595 Z M229.303621,49.3243243 L229.303621,38.2958272 L240,43.8100758 L229.303621,49.3243243 Z" id="!"></path>
                            </g>
                        </g>
                    </g>
                </g>
            </g>
        </g>
    </g>
</svg>