<?xml version="1.0" encoding="UTF-8" standalone="no"?>
<svg width="89px" height="87px" viewBox="0 0 89 87" version="1.1" xmlns="http://www.w3.org/2000/svg" xmlns:xlink="http://www.w3.org/1999/xlink" xmlns:sketch="http://www.bohemiancoding.com/sketch/ns">
    <!-- Generator: Sketch 3.5.1 (25234) - http://www.bohemiancoding.com/sketch -->
    <title>Design Icon</title>
    <desc>Created with Sketch.</desc>
    <defs></defs>
    <g id="Welcome" stroke="none" stroke-width="1" fill="none" fill-rule="evenodd" sketch:type="MSPage">
        <g id="Blaaast-Desktop-1920" sketch:type="MSArtboardGroup" transform="translate(-916.000000, -2885.000000)" fill="#EE3A00">
            <g id="SERVICES" sketch:type="MSLayerGroup" transform="translate(-27.000000, 2688.000000)">
                <g id="CONTENT" transform="translate(582.000000, 194.000000)" sketch:type="MSShapeGroup">
                    <g id="Design-Icon" transform="translate(361.000000, 3.000000)">
                        <path d="M44.117191,4.12018882 L71.5413355,14.1017611 L70.4639202,13.1977023 L85.0560027,38.4719306 L84.8117725,37.0868322 L79.7439954,65.8276242 L80.4472283,64.6095891 L58.0908608,83.3688088 L59.4125064,82.8877692 L30.2283413,82.8877692 L31.5499869,83.3688088 L9.19361942,64.6095891 L9.89685231,65.8276242 L4.82907524,37.0868322 L4.58484502,38.4719306 L19.1769275,13.1977023 L18.0995122,14.1017611 L45.5236567,4.12018882 L44.117191,4.12018882 L44.117191,4.12018882 Z M45.5236567,0.25595584 L44.8204238,0 L44.117191,0.25595584 L16.6930464,10.2375281 L15.9898136,10.493484 L15.6156311,11.1415869 L1.02354864,36.4158152 L0.649366232,37.0639182 L0.779318418,37.8009136 L5.84709549,66.5417056 L5.97704768,67.2787011 L6.55032838,67.7597407 L28.9066958,86.5189604 L29.4799765,87 L30.2283413,87 L59.4125064,87 L60.1608712,87 L60.7341519,86.5189604 L83.0905193,67.7597407 L83.6638,67.2787011 L83.7937522,66.5417056 L88.8615293,37.8009136 L88.9914815,37.0639182 L88.6172991,36.4158152 L74.0252166,11.1415869 L73.6510341,10.493484 L72.9478013,10.2375281 L45.5236567,0.25595584 L45.5236567,0.25595584 Z" id="Shape"></path>
                        <path d="M47.8431458,41.6715729 L11.6254074,36.4976103 L33.0603954,26.8888225 L47.8431458,41.6715729 Z M35.9539305,24.1255034 L43.9689089,8.82418099 L50.1623013,38.3338742 L35.9539305,24.1255034 Z M53.0658371,46.8942642 L17.6332184,63 L75.9590699,63 L53.7161949,47.1122322 L53.5,47.3284271 L53.0658371,46.8942642 Z M46.8868961,3.25347822 L47.1996771,2.65635092 L46.7074612,2.39852354 L46.5465526,1.63184139 L45.616459,1.82704622 L43.6563509,0.80032294 L42.8100163,2.41605271 L42.6318414,2.45344744 L42.6772065,2.6695987 L32.0497675,22.9583458 L4.20995811,35.4382604 L2.80294373,35.2372583 L2.67599506,36.125899 L1.85686954,36.4930932 L2.43826035,37.7900419 L2.2372583,39.1970563 L3.12589896,39.3240049 L3.49309316,40.1431305 L4.79004189,39.5617396 L46.4407362,45.5118388 L8.67239411,62.679267 L6.85166116,63.5068729 L8.50687293,67.1483388 L8.83321839,67 L10.5,67 L68.8614089,67 L30.3120371,81.1220471 L28.4340842,81.8100101 L29.8100101,85.5659158 L31.6879629,84.8779529 L80.4899424,67 L81.5,67 L81.5590699,67 L81.9649906,67.2899433 L82.1720929,67 L83.5,67 L83.5,65.8973056 L84.0659158,65.6899899 L83.7411144,64.8033699 L84.2899433,64.0350094 L83.5,63.4707642 L83.5,63 L83.080474,63 L82.6899899,61.9340842 L81.8033699,62.2588856 L58.3284321,45.4910729 L85.9273938,39.4538 L87.8811938,39.0264063 L87.0264063,35.1188062 L85.0726062,35.5462 L55.0430525,42.1151648 L46.9573556,3.58919698 L46.8868961,3.25347822 Z" id="Line"></path>
                    </g>
                </g>
            </g>
        </g>
    </g>
</svg>