<?xml version="1.0" encoding="UTF-8" standalone="no"?>
<svg width="42px" height="83px" viewBox="0 0 42 83" version="1.1" xmlns="http://www.w3.org/2000/svg" xmlns:xlink="http://www.w3.org/1999/xlink" xmlns:sketch="http://www.bohemiancoding.com/sketch/ns">
    <!-- Generator: Sketch 3.5.1 (25234) - http://www.bohemiancoding.com/sketch -->
    <title>Group</title>
    <desc>Created with Sketch.</desc>
    <defs></defs>
    <g id="Welcome" stroke="none" stroke-width="1" fill="none" fill-rule="evenodd" sketch:type="MSPage">
        <g id="Blaaast-Desktop-1920" sketch:type="MSArtboardGroup" transform="translate(-700.000000, -2885.000000)" fill="#EF3A00">
            <g id="Group-2" sketch:type="MSLayerGroup" transform="translate(-27.000000, 2688.000000)">
                <g id="SERVICES" sketch:type="MSShapeGroup">
                    <g id="CONTENT" transform="translate(582.000000, 194.000000)">
                        <g id="Dev-Icon" transform="translate(145.000000, 3.000000)">
                            <g id="Group">
                                <path d="M34.8404391,82.534994 L8.03059941,82.534994 C4.12384463,82.534994 0.94282597,79.3423671 0.94282597,75.4167391 L0.94282597,7.24262692 C0.94282597,3.31825192 4.12384463,0.125625 8.03059941,0.125625 L34.8404391,0.125625 C38.7471939,0.125625 41.9269656,3.31825192 41.9269656,7.24262692 L41.9269656,75.4167391 C41.9269656,79.3423671 38.7471939,82.534994 34.8404391,82.534994 M8.03059941,3.91342373 C6.20129546,3.91342373 4.7136611,5.40824473 4.7136611,7.24262692 L4.7136611,75.4167391 C4.7136611,77.2523743 6.20129546,78.7459423 8.03059941,78.7459423 L34.8404391,78.7459423 C36.67099,78.7459423 38.1573774,77.2523743 38.1573774,75.4167391 L38.1573774,7.24262692 C38.1573774,5.40824473 36.67099,3.91342373 34.8404391,3.91342373 L8.03059941,3.91342373" id="Fill-6"></path>
                                <path d="M21.4205556,78.5241625 C18.5861944,78.5241625 16.2805482,76.2048719 16.2805482,73.3555651 C16.2805482,70.5075114 18.5861944,68.1882208 21.4205556,68.1882208 C24.2549168,68.1882208 26.5643039,70.5075114 26.5643039,73.3555651 C26.5643039,76.2048719 24.2549168,78.5241625 21.4205556,78.5241625 M21.4205556,71.9760195 C20.6661392,71.9760195 20.0513834,72.5937452 20.0513834,73.3555651 C20.0513834,74.1173851 20.6661392,74.7363637 21.4205556,74.7363637 C22.178713,74.7363637 22.7934688,74.1173851 22.7934688,73.3555651 C22.7934688,72.5937452 22.178713,71.9760195 21.4205556,71.9760195" id="Fill-7"></path>
                                <path d="M38.743453,67.1895851 L4.13132644,67.1895851 C2.37185277,67.1895851 0.94282597,65.7536548 0.94282597,63.9856813 L0.94282597,13.8233477 C0.94282597,12.0541212 2.37185277,10.6194438 4.13132644,10.6194438 L38.743453,10.6194438 C40.4991857,10.6194438 41.9269656,12.0541212 41.9269656,13.8233477 L41.9269656,63.9856813 C41.9269656,65.7536548 40.4991857,67.1895851 38.743453,67.1895851 L38.743453,67.1895851 Z M4.7136611,63.4005334 L38.1586244,63.4005334 L38.1586244,14.4059896 L4.7136611,14.4059896 L4.7136611,63.4005334 Z" id="Fill-8"></path>
                            </g>
                        </g>
                    </g>
                </g>
            </g>
        </g>
    </g>
</svg>