<?xml version="1.0" encoding="UTF-8" standalone="no"?>
<svg width="187px" height="96px" viewBox="0 0 187 96" version="1.1" xmlns="http://www.w3.org/2000/svg" xmlns:xlink="http://www.w3.org/1999/xlink" xmlns:sketch="http://www.bohemiancoding.com/sketch/ns">
    <!-- Generator: Sketch 3.5.1 (25234) - http://www.bohemiancoding.com/sketch -->
    <title>Positive Impact Icon</title>
    <desc>Created with Sketch.</desc>
    <defs></defs>
    <g id="Welcome" stroke="none" stroke-width="1" fill="none" fill-rule="evenodd" sketch:type="MSPage">
        <g id="Blaaast-Desktop-1920" sketch:type="MSArtboardGroup" transform="translate(-1161.000000, -2882.000000)" fill="#EF3A00">
            <g id="SERVICES" sketch:type="MSLayerGroup" transform="translate(-27.000000, 2688.000000)">
                <g id="CONTENT" transform="translate(582.000000, 194.000000)" sketch:type="MSShapeGroup">
                    <g id="Positive-Impact-Icon" transform="translate(606.000000, 0.000000)">
                        <path d="M93.2943118,80.2694314 C89.0145059,80.2694314 85.5295038,79.2676213 85.3025903,79.199866 L86.3024656,75.8096825 C86.3849796,75.831461 94.049072,78.0214082 99.7765129,75.5797985 L101.16833,78.8296319 C98.6067559,79.9209757 95.8146285,80.2694314 93.2943118,80.2694314" id="Fill-1"></path>
                        <path d="M85.3025903,82.598519 C87.1239651,82.598519 90.2279468,83.3172089 93.2384935,83.3172089 C95.8631661,83.3172089 98.4126054,82.598519 99.9755172,82.598519" id="Fill-2"></path>
                        <path d="M93.2384935,85.1320823 C91.4256129,85.1320823 89.6467086,84.8973586 88.0765161,84.6904631 C86.9965538,84.547693 85.9784769,84.4121825 85.3025903,84.4121825 L85.3025903,80.7824357 C86.2187382,80.7824357 87.299914,80.9264156 88.5533984,81.0921741 C90.0119543,81.2845506 91.6658742,81.5023354 93.2384935,81.5023354 C94.5757054,81.5023354 95.9517473,81.2869705 97.1627613,81.0970137 C98.2318027,80.9288354 99.1540177,80.7824357 99.9755172,80.7824357 L99.9755172,84.4121825 C99.4367495,84.4121825 98.6079694,84.5440633 97.7306516,84.6819937 C96.3849457,84.892519 94.8620774,85.1320823 93.2384935,85.1320823" id="Fill-3"></path>
                        <path d="M85.3025903,87.1381224 C87.1239651,87.1381224 90.2279468,87.8568122 93.2384935,87.8568122 C95.8631661,87.8568122 98.4126054,87.1381224 99.9755172,87.1381224" id="Fill-4"></path>
                        <path d="M93.2384935,89.6716857 C91.4256129,89.6716857 89.6467086,89.436962 88.0765161,89.2300665 C86.9965538,89.0885063 85.9784769,88.9542057 85.3025903,88.9542057 L85.3025903,85.3244589 C86.2187382,85.3244589 87.299914,85.466019 88.5521849,85.6317774 C90.0119543,85.824154 91.6658742,86.0419388 93.2384935,86.0419388 C94.5769188,86.0419388 95.9517473,85.8253639 97.1651882,85.6366171 C98.2318027,85.4684388 99.1540177,85.3244589 99.9755172,85.3244589 L99.9755172,88.9542057 C99.4367495,88.9542057 98.6079694,89.0836667 97.7306516,89.221597 C96.3849457,89.4321224 94.8620774,89.6716857 93.2384935,89.6716857" id="Fill-5"></path>
                        <path d="M85.1945941,32.9133344 L81.4656903,29.8752363 L78.8956226,31.9683903 L76.5925118,29.1589662 L81.4656903,25.1880232 L85.1776059,28.2128122 L88.849478,25.1807637 L92.5759548,28.2188618 L96.2951511,25.1880232 L100.025268,28.2261213 L103.800283,25.1940728 L108.663754,29.1589662 L106.357003,31.9683903 L103.784508,29.8691867 L100.010707,32.9000253 L96.2951511,29.8752363 L92.5759548,32.9072848 L88.8640392,29.8824958 L85.1945941,32.9133344" id="Fill-6"></path>
                        <path d="M80.6150683,55.1007669 L74.9665011,26.6580707 L78.5364441,25.9526899 L84.1862247,54.396596 L80.6150683,55.1007669" id="Fill-7"></path>
                        <path d="M104.365746,55.1007669 L100.795803,54.396596 L106.445584,25.9526899 L110.015527,26.6580707 L104.365746,55.1007669" id="Fill-8"></path>
                        <path d="M161.65957,86.5876108 L160.83807,86.1726097 C160.180385,85.8398829 144.645916,77.8871076 138.795917,65.3439124 C138.283845,64.3638808 137.724449,62.6578998 137.66135,62.467943 C136.962408,60.2961445 136.608083,58.0965179 136.608083,55.9271392 C136.608083,47.2109072 143.438542,40.1195918 151.833126,40.1195918 C155.438259,40.1195918 158.928115,41.463808 161.65957,43.8546013 C164.392239,41.463808 167.882095,40.1195918 171.488441,40.1195918 C179.883025,40.1195918 186.713483,47.2109072 186.713483,55.9271392 C186.713483,58.0118238 186.371293,60.1412753 185.667497,62.4389051 C185.314386,63.5919546 184.56448,65.2531688 184.534144,65.3245538 C178.675651,77.8871076 163.141181,85.8398829 162.482283,86.1726097 L161.65957,86.5876108 L161.65957,86.5876108 Z M151.833126,43.7493386 C145.44436,43.7493386 140.248406,49.2121076 140.248406,55.9271392 C140.248406,57.7178143 140.543272,59.5447869 141.126937,61.3536108 C141.26891,61.7903903 141.715456,63.0777405 142.0625,63.7407743 C146.680856,73.6427236 158.443952,80.7013713 161.65957,82.4908365 C164.877615,80.7025812 176.634644,73.652403 181.222663,63.8133692 C181.40468,63.4116772 181.949515,62.1509451 182.184922,61.3778091 C182.783148,59.4298449 183.073161,57.6464293 183.073161,55.9271392 C183.073161,49.2121076 177.875994,43.7493386 171.488441,43.7493386 C168.244913,43.7493386 165.23922,45.1225928 163.023477,47.615019 L161.65957,49.1467722 L160.298089,47.615019 C158.081133,45.1225928 155.07544,43.7493386 151.833126,43.7493386 L151.833126,43.7493386 Z" id="Fill-9"></path>
                        <path d="M148.814085,36.5805886 L147.991372,36.1643776 C147.54968,35.9417532 137.112875,30.5975559 133.163125,22.1281466 C132.814867,21.462693 132.43142,20.2902848 132.387736,20.1596139 C131.906,18.6665781 131.660885,17.1517637 131.660885,15.6526783 C131.660885,9.56196308 136.446696,4.6037289 142.328244,4.6037289 C144.682319,4.6037289 146.966015,5.41800211 148.814085,6.882 C150.663369,5.41800211 152.945851,4.6037289 155.299926,4.6037289 C161.181474,4.6037289 165.966072,9.56196308 165.966072,15.6526783 C165.966072,17.0912679 165.731877,18.5564757 165.248928,20.1317859 C165.008667,20.9158112 164.526931,21.9890063 164.473539,22.1075781 C160.515295,30.5975559 150.079704,35.9417532 149.635584,36.1643776 L148.814085,36.5805886 L148.814085,36.5805886 Z M142.328244,8.23347574 C138.453727,8.23347574 135.301208,11.5619536 135.301208,15.6526783 C135.301208,16.7730601 135.486864,17.9140105 135.85211,19.0452816 C135.977094,19.4264051 136.244051,20.1717131 136.429708,20.5262184 C139.282507,26.6411319 146.392057,31.0948312 148.814085,32.4765549 C151.237326,31.0960411 158.339596,26.6544409 161.163273,20.5988133 C161.274909,20.3507806 161.62074,19.5486065 161.767566,19.0718998 C162.143733,17.8438354 162.325749,16.7270833 162.325749,15.6526783 C162.325749,11.5619536 159.174443,8.23347574 155.299926,8.23347574 C153.339006,8.23347574 151.520058,9.06710759 150.175566,10.5782922 L148.814085,12.1100454 L147.451391,10.5782922 C146.108112,9.06710759 144.289164,8.23347574 142.328244,8.23347574 L142.328244,8.23347574 Z" id="Fill-10"></path>
                        <path d="M44.631693,25.2569884 L43.8089801,24.8431973 C43.503193,24.689538 36.332971,21.0162342 33.5990887,15.155403 C33.3600409,14.7004747 33.101578,13.9200791 33.0530403,13.7688397 C32.7096366,12.7053238 32.537328,11.6284989 32.537328,10.5625633 C32.537328,6.15121097 36.0126226,2.56139135 40.2851478,2.56139135 C41.8432059,2.56139135 43.3587935,3.05019726 44.631693,3.94069515 C45.9045925,3.05019726 47.4189667,2.56139135 48.9770247,2.56139135 C53.24955,2.56139135 56.7260581,6.15121097 56.7260581,10.5625633 C56.7260581,11.5885717 56.5598167,12.6266793 56.2188398,13.7410116 C56.0453177,14.2999926 55.7091946,15.0513502 55.671578,15.1360443 C52.9292016,21.0162342 45.7577661,24.689538 45.4531925,24.8431973 L44.631693,25.2569884 L44.631693,25.2569884 Z M40.2851478,6.19113819 C38.0196538,6.19113819 36.1776505,8.15362131 36.1776505,10.5625633 C36.1776505,11.2510053 36.291714,11.9551762 36.517414,12.6545074 C36.5975011,12.9001203 36.7649559,13.3610981 36.8644581,13.5522648 C38.6178801,17.3078428 42.8394409,20.0930686 44.6304796,21.1432753 C46.4203048,20.0894388 50.6442925,17.3078428 52.3613113,13.6248597 C52.3613113,13.6248597 52.6222011,13.0549895 52.737478,12.6787057 C52.971672,11.9152489 53.0857355,11.2231772 53.0857355,10.5625633 C53.0857355,8.15362131 51.2413054,6.19113819 48.9770247,6.19113819 C47.8376038,6.19113819 46.7782699,6.67752426 45.9931737,7.55955274 L44.6304796,9.09130591 L43.2689989,7.55955274 C42.4839027,6.67752426 41.4245688,6.19113819 40.2851478,6.19113819 L40.2851478,6.19113819 Z" id="Fill-11"></path>
                        <path d="M122.834316,86.0782363 L122.012817,85.6632352 C121.70703,85.5095759 114.536808,81.8374821 111.802925,75.9754409 C111.562664,75.5205127 111.304201,74.7401171 111.255663,74.5888776 C110.91226,73.5241519 110.738738,72.447327 110.738738,71.3838112 C110.738738,66.9724589 114.215246,63.3814293 118.487771,63.3814293 C120.047042,63.3814293 121.56263,63.8714451 122.834316,64.7607331 C124.106002,63.8714451 125.62159,63.3814293 127.179648,63.3814293 C131.452173,63.3814293 134.927468,66.9724589 134.927468,71.3838112 C134.927468,72.4086097 134.76244,73.4467173 134.421463,74.5598397 C134.249154,75.1212405 133.911818,75.8713882 133.874201,75.9560823 C131.131825,81.8374821 123.960389,85.5095759 123.655816,85.6632352 L122.834316,86.0782363 L122.834316,86.0782363 Z M118.487771,67.0111762 C116.222277,67.0111762 114.37906,68.9736593 114.37906,71.3838112 C114.37906,72.0698333 114.493124,72.7740042 114.720037,73.4745454 C114.800124,73.7213681 114.967579,74.1811361 115.068295,74.3747226 C116.820503,78.1303006 121.042064,80.9143165 122.833103,81.9657331 C124.622928,80.9118966 128.846916,78.1290907 130.563934,74.4461076 C130.563934,74.4461076 130.824824,73.8738175 130.940101,73.4975338 C131.174295,72.7352869 131.287145,72.0432152 131.287145,71.3838112 C131.287145,68.9736593 129.445142,67.0111762 127.179648,67.0111762 C126.040227,67.0111762 124.980893,67.4975622 124.195797,68.3795907 L122.834316,69.9125538 L121.471622,68.3795907 C120.686526,67.4975622 119.627192,67.0111762 118.487771,67.0111762 L118.487771,67.0111762 Z" id="Fill-12"></path>
                        <path d="M65.1376301,77.7842648 L64.3161306,77.3704736 C64.1098457,77.265211 59.2354538,74.770365 57.3582608,70.7449757 C57.1956597,70.4376572 57.0209242,69.9161835 56.9723866,69.766154 C56.7284849,69.0087468 56.604714,68.2404504 56.604714,67.4782036 C56.604714,64.2501487 59.159007,61.622212 62.2981785,61.622212 C63.3029075,61.622212 64.2809409,61.8980728 65.1376301,62.4038175 C65.9943194,61.8980728 66.9735661,61.622212 67.9770817,61.622212 C71.1162532,61.622212 73.6705462,64.2501487 73.6705462,67.4782036 C73.6705462,68.2126224 73.5528425,68.9530907 73.3113677,69.7395359 C73.193664,70.1267089 72.926707,70.7256171 72.926707,70.7256171 C71.0410199,74.770365 66.166628,77.265211 65.960343,77.3704736 L65.1376301,77.7842648 L65.1376301,77.7842648 Z M62.2981785,65.2519589 C61.1660382,65.2519589 60.2450366,66.2513492 60.2450366,67.4782036 C60.2450366,67.8629568 60.3093489,68.2573892 60.4367602,68.6530316 C60.4428274,68.6675506 60.5350489,68.9700295 60.6248435,69.1430475 C61.5579796,71.1418281 63.7470269,72.8042521 65.1327763,73.6608724 C66.3656323,72.8998354 68.6553952,71.2761287 69.6164403,69.2144325 C69.6164403,69.2144325 69.7644801,68.8925949 69.8300059,68.6796498 C69.9646978,68.2392405 70.0302237,67.8472278 70.0302237,67.4782036 C70.0302237,66.2513492 69.109222,65.2519589 67.9770817,65.2519589 C67.416472,65.2519589 66.8922656,65.493942 66.5003242,65.9343513 L65.1376301,67.4673143 L63.7761495,65.9343513 C63.3854215,65.493942 62.8600016,65.2519589 62.2981785,65.2519589 L62.2981785,65.2519589 Z" id="Fill-13"></path>
                        <path d="M29.4284925,81.2615622 L28.6057796,80.8465612 C27.8485925,80.4642278 9.99645054,71.3245253 3.2836957,56.9289494 C2.69639032,55.8061477 2.05690699,53.8581835 1.98652742,53.6391888 C1.18686989,51.1600717 0.782794086,48.6494968 0.782794086,46.1740095 C0.782794086,36.2648006 8.54274839,28.2031329 18.0803935,28.2031329 C22.2558435,28.2031329 26.2978151,29.7905422 29.4284925,32.6120654 C32.5579565,29.7905422 36.599928,28.2031329 40.775378,28.2031329 C50.3130231,28.2031329 58.0729774,36.2648006 58.0729774,46.1740095 C58.0729774,48.5539135 57.6822495,50.9870538 56.8777382,53.6113608 C56.4748758,54.9241192 55.6169731,56.8285264 55.5817833,56.9095907 C48.859321,71.3245253 31.007179,80.4642278 30.2512054,80.8465612 L29.4284925,81.2615622 L29.4284925,81.2615622 Z M18.0803935,31.8328797 C10.5497796,31.8328797 4.42311667,38.2660011 4.42311667,46.1740095 C4.42311667,48.2720032 4.76894731,50.4087141 5.45211452,52.5260665 C5.61714247,53.0366508 6.14013548,54.5429958 6.54906505,55.3258112 C11.9792129,66.9676192 25.8973796,75.2180338 29.4284925,77.1672078 C32.9596054,75.2180338 46.8729183,66.9748787 52.2703032,55.3984061 C52.2703032,55.3984061 53.0614667,53.6428186 53.3963763,52.5514747 C54.0941048,50.2756234 54.4326548,48.1897289 54.4326548,46.1740095 C54.4326548,38.2660011 48.3059919,31.8328797 40.775378,31.8328797 C36.9493989,31.8328797 33.4037247,33.4517468 30.7899731,36.3918418 L29.4284925,37.9235949 L28.0657984,36.3918418 C25.4520468,33.4517468 21.9063726,31.8328797 18.0803935,31.8328797 L18.0803935,31.8328797 Z" id="Fill-14"></path>
                        <path d="M27.6083312,43.1383312 L31.2486538,43.1383312 L31.2486538,64.8962437 L27.6083312,64.8962437 L27.6083312,43.1383312 Z" id="Fill-15"></path>
                        <path d="M18.5172323,52.203019 L40.3397527,52.203019 L40.3397527,55.8327658 L18.5172323,55.8327658 L18.5172323,52.203019 Z" id="Fill-16"></path>
                        <path d="M159.840622,53.2967827 L163.480945,53.2967827 L163.480945,72.1424283 L159.840622,72.1424283 L159.840622,53.2967827 Z" id="Fill-17"></path>
                        <path d="M152.210506,60.9047321 L171.111061,60.9047321 L171.111061,64.5344789 L152.210506,64.5344789 L152.210506,60.9047321 Z" id="Fill-18"></path>
                        <path d="M103.726263,61.5701857 C102.318672,64.476403 101.209587,67.7250264 101.209587,71.5616688 C101.209587,75.0655844 99.7910742,75.6245654 99.1855672,75.8629188 L98.0631344,76.2996983 L98.0631344,86.2016477 C98.0740554,88.189539 98.0291581,89.0993956 96.8375591,89.9221382 L95.5889285,90.8090063 C94.5744919,91.5410053 94.0308704,91.9209188 93.7093086,91.9209188 L91.9340446,91.9209188 C91.6088425,91.9209188 91.0615806,91.5373755 90.0435038,90.8017468 L88.8021538,89.9221382 C87.6105548,89.0993956 87.5656575,88.1859093 87.5765785,86.1955981 L87.5765785,76.304538 L86.4541457,75.8629188 C85.8486387,75.6245654 84.4301263,75.0655844 84.4301263,71.5616688 C84.4301263,67.7262363 83.3222548,64.476403 81.9158769,61.5701857 C79.7365371,60.0577911 77.3424183,58.2574367 74.9228172,56.2005802 C75.398486,57.0850285 75.8984237,57.9743165 76.4202032,58.8757036 C78.6153177,62.668789 80.8856656,66.5925454 80.8856656,71.5616688 C80.8856656,74.927654 81.9413591,77.2809399 84.0321177,78.5888586 L84.0321177,86.1774494 C84.0211968,88.2863323 84.0078489,90.9130591 86.7817747,92.8283555 L87.9673065,93.666827 C89.4064473,94.7049346 90.448793,95.4526624 91.9340446,95.4526624 L93.7093086,95.4526624 C95.1909199,95.4526624 96.2296253,94.7085643 97.6614855,93.6740865 L98.8567247,92.8283555 C101.635504,90.9130591 101.622156,88.2923819 101.607595,86.1847089 L101.607595,78.5888586 C103.698354,77.2845696 104.754047,74.927654 104.754047,71.5616688 C104.754047,66.5961751 107.024395,62.6760485 109.215869,58.8829631 C109.740076,57.9767363 110.240013,57.0850285 110.714469,56.2017901 C108.296081,58.2574367 105.903176,60.0577911 103.726263,61.5701857" id="Fill-19"></path>
                        <path d="M93.2348532,63.8641857 L92.4218478,63.4540243 C91.5129806,62.9942563 70.075121,52.0191118 62.0045258,34.7584557 C61.2594731,33.3138165 60.47195,30.8939852 60.4367602,30.7911424 C59.4829957,27.8365285 59.0012597,24.8407774 59.0012597,21.8885833 C59.0012597,10.1282036 68.2039952,0.558981013 79.5156909,0.558981013 C84.5854468,0.558981013 89.4877478,2.53356329 93.2348532,6.03263924 C96.983172,2.53356329 101.88426,0.558981013 106.952802,0.558981013 C118.266925,0.558981013 127.46966,10.1282036 127.46966,21.8885833 C127.46966,24.7258354 127.001272,27.6296329 126.040227,30.7645243 C125.559704,32.3277352 124.534347,34.6072162 124.490663,34.7027996 C116.423708,52.0033829 94.9579392,62.9942563 94.049072,63.4540243 L93.2348532,63.8641857 L93.2348532,63.8641857 Z M79.5156909,4.15001055 C70.1891844,4.15001055 62.6027522,12.1076255 62.6027522,21.8885833 C62.6027522,24.4669135 63.0274565,27.0924304 63.8659441,29.6901192 C64.0685887,30.3180654 64.7104989,32.1656065 65.2177172,33.1383787 L65.252907,33.2097637 C71.9426065,47.5557331 89.2705419,57.651269 93.2348532,59.8170179 C97.1955242,57.6488492 114.534381,47.5351646 121.215586,33.2097637 C121.216799,33.2097637 122.182698,31.0597437 122.596482,29.7155274 C123.453171,26.9242521 123.868168,24.3640707 123.868168,21.8885833 C123.868168,12.1076255 116.280522,4.15001055 106.952802,4.15001055 C102.282268,4.15001055 97.7719086,6.208077 94.582986,9.79547679 L93.2348532,11.3102911 L91.8867204,9.79547679 C88.6965844,6.208077 84.1886516,4.15001055 79.5156909,4.15001055 L79.5156909,4.15001055 Z" id="Fill-20"></path>
                    </g>
                </g>
            </g>
        </g>
    </g>
</svg>