<?xml version="1.0" encoding="UTF-8" standalone="no"?>
<svg width="104px" height="90px" viewBox="0 0 104 90" version="1.1" xmlns="http://www.w3.org/2000/svg" xmlns:xlink="http://www.w3.org/1999/xlink" xmlns:sketch="http://www.bohemiancoding.com/sketch/ns">
    <!-- Generator: Sketch 3.5.1 (25234) - http://www.bohemiancoding.com/sketch -->
    <title>Dev Icon</title>
    <desc>Created with Sketch.</desc>
    <defs></defs>
    <g id="Welcome" stroke="none" stroke-width="1" fill="none" fill-rule="evenodd" sketch:type="MSPage">
        <g id="Blaaast-Desktop-1920" sketch:type="MSArtboardGroup" transform="translate(-592.000000, -2882.000000)" fill="#EF3A00">
            <g id="Group-2" sketch:type="MSLayerGroup" transform="translate(-27.000000, 2688.000000)">
                <g id="SERVICES" sketch:type="MSShapeGroup">
                    <g id="CONTENT" transform="translate(582.000000, 194.000000)">
                        <g id="Dev-Icon" transform="translate(37.000000, 0.000000)">
                            <path d="M100.854983,67.8464877 L3.6213059,67.8464877 C2.00648067,67.8464877 0.69217504,66.5258327 0.69217504,64.9032064 L0.69217504,13.8675365 C0.69217504,12.2449102 2.00648067,10.9242553 3.6213059,10.9242553 L100.854983,10.9242553 C102.474796,10.9242553 103.786608,12.2449102 103.786608,13.8675365 L103.786608,64.9032064 C103.786608,66.5258327 102.474796,67.8464877 100.854983,67.8464877 L100.854983,67.8464877 Z M4.74482523,63.7742595 L99.7352047,63.7742595 L99.7352047,14.9964835 L4.74482523,14.9964835 L4.74482523,63.7742595 Z" id="Fill-1"></path>
                            <path d="M2.01520946,63.7642355 L102.923705,63.7642355 L102.923705,67.8364637 L2.01520946,67.8364637 L2.01520946,63.7642355 Z" id="Fill-2"></path>
                            <path d="M71.1372111,89.4330562 L31.2316999,89.4330562 L31.2316999,81.8336518 L36.9789813,81.8336518 C37.3792585,81.2059022 38.1386628,79.0507537 38.1386628,74.3582938 L42.190066,74.3582938 C42.190066,80.2273144 41.1264012,84.0163661 39.1524488,85.3608279 L63.7950559,85.3608279 C61.2113355,83.3247138 61.2113355,77.4669702 61.2113355,74.3582938 L65.2627388,74.3582938 C65.2627388,80.6408022 66.0558112,81.8937955 66.2964763,82.1281052 L71.1372111,82.0090709 L71.1372111,89.4330562" id="Fill-3"></path>
                            <path d="M51.1844555,72.3221797 L6.25615201,72.3221797 C5.42192955,72.3221797 4.74482523,71.6418044 4.74482523,70.8073108 L4.74482523,5.96741379 C4.74482523,5.12916128 5.42192955,4.44878592 6.25615201,4.44878592 L51.1844555,4.44878592 L51.1844555,0.376557711 L6.25615201,0.376557711 C3.18985453,0.376557711 0.69217504,2.88630328 0.69217504,5.96741379 L0.69217504,70.8073108 C0.69217504,73.8884213 3.18985453,76.3944079 6.25615201,76.3944079 L51.1844555,76.3944079 L51.1844555,72.3221797" id="Fill-4"></path>
                            <path d="M98.221384,72.3221797 C99.0556065,72.3221797 99.7314638,71.6418044 99.7314638,70.8073108 L99.7314638,5.96741379 C99.7314638,5.12916128 99.0556065,4.44878592 98.221384,4.44878592 L45.9397027,4.44878592 L45.9397027,0.376557711 L98.221384,0.376557711 C101.287682,0.376557711 103.784114,2.88630328 103.784114,5.96741379 L103.784114,70.8073108 C103.784114,73.8884213 101.287682,76.3944079 98.221384,76.3944079 L45.9397027,76.3944079 L45.9397027,72.3221797 L98.221384,72.3221797 Z" id="Fill-5"></path>
                            <path d="M40.5209961,34.5649793 L40.5209961,30.302284 L26.5610352,37.7143934 L26.5610352,41.0102918 L40.5209961,48.1733778 L40.5209961,43.9106825 L30.8969727,39.3843153 L30.8969727,39.2378309 L40.5209961,34.5649793 Z M47.1567383,52.1284559 L53.309082,26.68412 L49.324707,26.68412 L43.2456055,52.1284559 L47.1567383,52.1284559 Z M62.4936523,34.5503309 L72.1030273,39.2378309 L72.1030273,39.3843153 L62.4936523,43.896034 L62.4936523,48.1587293 L76.4536133,41.0102918 L76.4536133,37.699745 L62.4936523,30.302284 L62.4936523,34.5503309 Z" id="&lt;/-&gt;"></path>
                        </g>
                    </g>
                </g>
            </g>
        </g>
    </g>
</svg>