<?xml version="1.0" encoding="UTF-8" standalone="no"?>
<svg width="345px" height="108px" viewBox="0 0 345 108" version="1.1" xmlns="http://www.w3.org/2000/svg" xmlns:xlink="http://www.w3.org/1999/xlink">
    <!-- Generator: Sketch 3.6.1 (26313) - http://www.bohemiancoding.com/sketch -->
    <title>LOGO Copy</title>
    <desc>Created with Sketch.</desc>
    <defs></defs>
    <g id="Welcome" stroke="none" stroke-width="1" fill="none" fill-rule="evenodd">
        <g id="Blaaast-Desktop-New-Identity-Copy" transform="translate(-548.000000, -432.000000)" fill="#FFFFFF">
            <g id="HEADER" transform="translate(-112.000000, -37.000000)">
                <g id="LOGO-Copy" transform="translate(660.000000, 469.000000)">
                    <g id="Logotype-Seul-Copy-2">
                        <path d="M55.4035267,54.0548154 C55.4035267,56.9965887 54.805766,59.5546142 53.6102268,61.7289684 C52.4146876,63.9033226 50.7787111,65.7099281 48.7022483,67.148839 C46.6257855,68.5877499 44.2032818,69.6749107 41.4346647,70.410354 C38.6660476,71.1457974 35.7401666,71.5135135 32.6569339,71.5135135 L0,71.5135135 L0,3.40540541 L37.2817598,3.40540541 C39.6099151,3.40540541 41.7178079,3.91701049 43.6055014,4.94023601 C45.4931949,5.96346153 47.0977103,7.29043722 48.4190957,8.92120289 C49.7404811,10.5519686 50.7629664,12.406537 51.4865823,14.4849638 C52.2101981,16.5633907 52.5720006,18.6897493 52.5720006,20.8641035 C52.5720006,24.1256349 51.7697429,27.1952654 50.1652034,30.0730872 C48.560664,32.9509089 46.1538909,35.1252306 42.944812,36.5961172 C46.7831221,37.747246 49.8191169,39.7936663 52.0528875,42.7354397 C54.2866581,45.677213 55.4035267,49.4503005 55.4035267,54.0548154 L55.4035267,54.0548154 Z M39.6413649,50.8892273 C39.6413649,48.7788246 39.0436043,46.9882068 37.8480651,45.5173201 C36.6525259,44.0464335 35.1423937,43.3110011 33.3176234,43.3110011 L15.4790092,43.3110011 L15.4790092,58.1796726 L32.6569339,58.1796726 C34.6704737,58.1796726 36.3379112,57.508191 37.6592967,56.1652075 C38.9806821,54.822224 39.6413649,53.0635815 39.6413649,50.8892273 L39.6413649,50.8892273 Z M15.4790092,16.8351732 L15.4790092,30.9364294 L30.6748657,30.9364294 C32.3737898,30.9364294 33.883922,30.3608737 35.2053074,29.209745 C36.5266928,28.0586162 37.1873756,26.2679984 37.1873756,23.8378378 C37.1873756,21.599532 36.6053456,19.8728648 35.4412679,18.6577845 C34.2771903,17.4427042 32.8771719,16.8351732 31.2411709,16.8351732 L15.4790092,16.8351732 Z" id="B"></path>
                        <path d="M61.9846797,71.5135135 L61.9846797,3.40540541 L77.6255937,3.40540541 L77.6255937,57.7000381 L87.4512535,57.7000366 L79.4004892,71.5135124 L61.9846797,71.5135135 Z" id="L"></path>
                        <g id="Monogramme" transform="translate(87.931755, 0.000000)">
                            <path d="M39.7536424,0 L79.5072849,71.027027 L0,71.027027 L39.7536424,0 Z M39.7536424,34.092973 L51.111826,53.9805405 L28.3954589,53.9805405 L39.7536424,34.092973 Z" id="Triangle-1"></path>
                            <path d="M87.5486518,71.027027 L117.530697,71.027027 L77.8698168,0 L62.82385,26.9451983 L72.3079181,43.8543354 L77.8698168,34.092973 L89.201497,53.9805405 L77.9875466,53.9805405 L87.5486518,71.027027 Z" id="Triangle-1-Copy-2"></path>
                            <path d="M126.031639,71.027027 L144.61274,71.027027 L105.099153,0 L95.7412901,16.8210786 L126.031639,71.027027 Z" id="Triangle-1-Copy-4"></path>
                        </g>
                        <path d="M267.391432,18.1611643 C267.391432,18.1611643 262.076319,17.1703331 257.406376,16.7412815 C252.736433,16.31223 250.410937,16.0114309 248.398753,16.0114309 C245.757762,16.0114309 243.965691,16.9416835 242.550874,17.9025661 C241.136058,18.8634488 240.42866,20.2727223 240.42866,22.1304288 C240.42866,23.283488 240.743059,24.2443562 241.371866,25.0130624 C242.000674,25.7817685 242.896711,26.4703908 244.060005,27.0789498 C245.223298,27.6875088 246.669534,28.2480153 248.398754,28.7604861 C250.127975,29.2729568 252.124408,29.8494778 254.388115,30.4900662 C257.595033,31.3868901 260.487504,32.3637728 263.065614,33.4207437 C265.643725,34.4777147 267.844518,35.7909013 269.668059,37.360343 C271.491601,38.9297847 272.890677,40.8355068 273.865328,43.0775663 C274.83998,45.3196259 275.327298,48.010057 275.327298,51.1489404 C275.327298,54.9924711 274.6199,58.2434088 273.205084,60.9018508 C271.790267,63.5602929 269.919593,65.706232 267.593005,67.3397325 C265.266418,68.9732331 262.578306,70.158304 259.52859,70.8949807 C256.478874,71.6316574 253.350603,71.9962856 250.143686,71.9999902 C246.442313,72.004266 240.166108,70.6053048 240.166108,70.6053048 L230.968439,53.7077746 C231.282843,54.0280688 240.271446,56.0173848 242.786676,56.7220321 C245.301906,57.4266794 247.848538,57.7789977 250.426648,57.7789977 C255.897273,57.7789977 258.632544,56.0814638 258.632544,52.686345 C258.632544,51.4051681 258.223825,50.348213 257.406376,49.5154481 C256.588926,48.6826831 255.45709,47.9300029 254.010833,47.2573851 C252.564575,46.5847672 250.866821,45.9602028 248.917518,45.3836732 C246.968215,44.8071436 244.830302,44.1665648 242.503714,43.4619175 C239.422558,42.5010348 236.750166,41.4600942 234.486459,40.3390644 C232.222753,39.2180346 230.336359,37.9208625 228.827221,36.447509 C227.318083,34.9741556 226.201966,33.2766217 225.478838,31.3548563 C224.755709,29.433091 224.39415,27.191065 224.39415,24.6287112 C224.39415,21.0414159 225.054388,17.8705506 226.374884,15.1160203 C227.69538,12.36149 229.487454,10.0393917 231.751161,8.14965576 C234.014867,6.25991983 236.640099,4.83463191 239.626934,3.87374924 C242.61377,2.91286656 245.77348,2.43243243 249.106159,2.43243243 C251.495627,2.43243243 253.82218,2.65663503 256.085887,3.10504694 C258.349593,3.55345886 260.235994,4.38722083 260.235994,4.38722083 L267.391432,18.1611643 Z" id="S-Copy"></path>
                        <path d="M324.33844,16.7323944 L303.82417,16.7323944 L303.82417,71.027027 L288.24852,71.027027 L288.24852,16.7323944 L275.014623,16.7323947 L267.639276,2.91891892 L324.33844,2.91891892 L324.33844,16.7323944 Z" id="T"></path>
                        <path d="M329.623955,49.6216216 L329.623955,2.43243243 L345,2.43243243 L345,49.6216216 L329.623955,49.6216216 Z M329.623955,71.027027 L329.623955,55.1459912 L345,63.0865092 L329.623955,71.027027 Z" id="!"></path>
                    </g>
                    <path d="M7.47156561,102.412382 C6.5359129,102.412382 5.66958078,102.220009 4.87254328,101.835257 C4.07550578,101.450505 3.39110341,100.934596 2.81931563,100.287513 C2.24752786,99.6404305 1.80136682,98.8884268 1.48081913,98.0314795 C1.16027144,97.1745323 1,96.2738767 1,95.3294858 C1,94.3676062 1.15160812,93.4538343 1.45482891,92.5881427 C1.7580497,91.7224511 2.18255243,90.9660753 2.72834985,90.3189927 C3.27414727,89.67191 3.92389636,89.1603726 4.6776166,88.7843652 C5.43133685,88.4083577 6.25868402,88.2203568 7.15968293,88.2203568 C8.25127777,88.2203568 9.2259014,88.5089163 10.0835831,89.0860441 C10.9412647,89.6631718 11.6213354,90.3627101 12.1238156,91.18468 L12.1238156,83 L14.4109552,83 L14.4109552,99.316894 C14.4109552,99.8590443 14.6535282,100.13886 15.1386815,100.156348 L15.1386815,102.150052 C14.9480856,102.18503 14.7791508,102.211263 14.6318721,102.228751 C14.4845935,102.24624 14.350312,102.254984 14.2290237,102.254984 C13.7092166,102.254984 13.2933772,102.119449 12.981493,101.848374 C12.6696087,101.577298 12.5050056,101.24939 12.4876787,100.864638 L12.4356983,99.5792235 C11.8985643,100.471148 11.1838403,101.166314 10.2915048,101.664743 C9.39916938,102.163171 8.45919904,102.412382 7.47156561,102.412382 L7.47156561,102.412382 Z M8.0173603,100.418678 C8.43320596,100.418678 8.86204035,100.33998 9.30387636,100.182581 C9.74571237,100.025183 10.1615518,99.8065771 10.5514071,99.5267576 C10.9412624,99.2469381 11.2791319,98.9190295 11.5650258,98.543022 C11.8509197,98.1670146 12.0371811,97.7691522 12.1238156,97.3494229 L12.1238156,93.4144806 C11.9678735,92.9772626 11.7339638,92.5619117 11.4220796,92.1684155 C11.1101953,91.7749193 10.7593308,91.4338944 10.3694755,91.1453305 C9.97962022,90.8567667 9.5637808,90.6294167 9.1219448,90.4632739 C8.68010879,90.297131 8.24261107,90.2140609 7.80943852,90.2140609 C7.13368933,90.2140609 6.52292519,90.3583406 5.97712777,90.6469045 C5.43133035,90.9354684 4.96351101,91.3202145 4.57365571,91.8011542 C4.18380041,92.282094 3.88491583,92.8329805 3.67699301,93.45383 C3.46907018,94.0746796 3.36511032,94.7086361 3.36511032,95.3557188 C3.36511032,96.0377789 3.48639682,96.6892239 3.72897345,97.3100735 C3.97155008,97.930923 4.30075629,98.4686931 4.71660194,98.9233998 C5.13244759,99.3781065 5.62192524,99.740992 6.18504956,100.012067 C6.74817388,100.283142 7.35893802,100.418678 8.0173603,100.418678 L8.0173603,100.418678 Z M24.2930157,102.150052 L24.2930157,88.4564533 L26.5801554,88.4564533 L26.5801554,102.150052 L24.2930157,102.150052 Z M24.2930157,85.8856243 L24.2930157,83 L26.5801554,83 L26.5801554,85.8856243 L24.2930157,85.8856243 Z M41.6342703,102.30745 C40.7159445,102.30745 39.8712706,102.115077 39.1002235,101.730325 C38.3291763,101.345573 37.6664323,100.829664 37.1119714,100.182581 C36.5575105,99.5354987 36.1286761,98.7922392 35.8254554,97.9527807 C35.5222346,97.1133221 35.3706264,96.2388993 35.3706264,95.3294858 C35.3706264,94.3676062 35.5222346,93.4538343 35.8254554,92.5881427 C36.1286761,91.7224511 36.5575105,90.9660753 37.1119714,90.3189927 C37.6664323,89.67191 38.3291763,89.1603726 39.1002235,88.7843652 C39.8712706,88.4083577 40.7246078,88.2203568 41.6602605,88.2203568 C42.803836,88.2203568 43.7914546,88.5001721 44.623146,89.0598111 C45.4548373,89.6194502 46.1565663,90.3277327 46.728354,91.18468 L46.728354,88.4564533 L48.7555915,88.4564533 L48.7555915,101.992655 C48.7555915,102.972023 48.5736617,103.83333 48.2097968,104.5766 C47.8459318,105.319871 47.3521225,105.945083 46.728354,106.452256 C46.1045856,106.959429 45.3725349,107.344175 44.5321802,107.606506 C43.6918254,107.868837 42.7951717,108 41.8421921,108 C40.3000978,108 39.0482479,107.733301 38.0866048,107.199895 C37.1249617,106.666489 36.3236045,105.927602 35.6825091,104.983211 L37.0080105,103.802728 C37.5451445,104.607209 38.2382102,105.210561 39.0872284,105.612802 C39.9362466,106.015042 40.8545586,106.216159 41.8421921,106.216159 C42.4659605,106.216159 43.059398,106.128717 43.6225224,105.95383 C44.1856467,105.778943 44.6751243,105.516616 45.09097,105.166842 C45.5068156,104.817067 45.8403535,104.379856 46.0915936,103.855194 C46.3428337,103.330533 46.4684518,102.709692 46.4684518,101.992655 L46.4684518,99.5792235 C46.2085483,99.9989528 45.9010004,100.379327 45.5457989,100.720357 C45.1905974,101.061387 44.8050796,101.349946 44.3892339,101.586044 C43.9733883,101.822142 43.5315589,102.001398 43.0637326,102.12382 C42.5959062,102.246241 42.1194235,102.30745 41.6342703,102.30745 L41.6342703,102.30745 Z M42.3360063,100.418678 C42.8211596,100.418678 43.2889789,100.331236 43.7394784,100.156348 C44.1899778,99.9814612 44.6058172,99.7497391 44.9870091,99.4611752 C45.3682009,99.1726114 45.6887438,98.8447028 45.9486473,98.4774397 C46.2085509,98.1101765 46.3818173,97.7341747 46.4684518,97.3494229 L46.4684518,93.4144806 C46.2778559,92.9422852 46.0309512,92.5138179 45.7277304,92.1290661 C45.4245097,91.7443143 45.0823085,91.4076615 44.7011166,91.1190976 C44.3199248,90.8305337 43.908417,90.6075559 43.466581,90.4501574 C43.024745,90.2927589 42.578584,90.2140609 42.1280845,90.2140609 C41.4350084,90.2140609 40.815581,90.3627127 40.2697835,90.660021 C39.7239861,90.9573292 39.2604984,91.3508195 38.8793066,91.8405037 C38.4981147,92.3301878 38.2035618,92.8854464 37.995639,93.5062959 C37.7877162,94.1271455 37.6837563,94.7523578 37.6837563,95.3819517 C37.6837563,96.0640118 37.8050428,96.7110847 38.0476194,97.3231899 C38.2901961,97.9352951 38.6194023,98.4686931 39.0352479,98.9233998 C39.4510936,99.3781065 39.9405712,99.740992 40.5036956,100.012067 C41.0668199,100.283142 41.677584,100.418678 42.3360063,100.418678 L42.3360063,100.418678 Z M58.3777497,102.150052 L58.3777497,88.4564533 L60.6648893,88.4564533 L60.6648893,102.150052 L58.3777497,102.150052 Z M58.3777497,85.8856243 L58.3777497,83 L60.6648893,83 L60.6648893,85.8856243 L58.3777497,85.8856243 Z M77.3303981,101.467996 C77.1917829,101.537951 77.0098531,101.621021 76.7846034,101.717209 C76.5593537,101.813397 76.3037857,101.909583 76.0178918,102.005771 C75.7319979,102.101959 75.4201184,102.180657 75.0822438,102.241868 C74.7443692,102.303078 74.3935047,102.333683 74.0296397,102.333683 C73.1979484,102.333683 72.4788928,102.101961 71.8724512,101.63851 C71.2660096,101.175059 70.9627934,100.45366 70.9627934,99.4742917 L70.9627934,90.2665268 L69.1174875,90.2665268 L69.1174875,88.4564533 L70.9627934,88.4564533 L70.9627934,83.8919203 L73.249933,83.8919203 L73.249933,88.4564533 L76.2907892,88.4564533 L76.2907892,90.2665268 L73.249933,90.2665268 L73.249933,98.7660021 C73.2845868,99.273175 73.4491899,99.6404326 73.7437473,99.8677859 C74.0383046,100.095139 74.3848375,100.208814 74.7833562,100.208814 C75.2338557,100.208814 75.6453634,100.134488 76.0178918,99.9858342 C76.3904202,99.8371801 76.6459882,99.719133 76.7846034,99.6316894 L77.3303981,101.467996 Z M89.005784,102.412382 C88.3300348,102.412382 87.7062757,102.303079 87.1344879,102.08447 C86.5627001,101.865861 86.0688908,101.568557 85.6530452,101.19255 C85.2371995,100.816542 84.912325,100.370587 84.6784118,99.8546695 C84.4444986,99.3387522 84.3275438,98.7922379 84.3275438,98.2151102 C84.3275438,97.5680275 84.4661569,96.9777921 84.7433873,96.4443861 C85.0206178,95.9109802 85.4147989,95.4562803 85.9259425,95.0802728 C86.4370861,94.7042653 87.0435186,94.4157058 87.7452581,94.2145855 C88.4469977,94.0134652 89.2137016,93.9129066 90.0453929,93.9129066 C90.7038152,93.9129066 91.3708909,93.9741162 92.0466401,94.0965373 C92.7223893,94.2189583 93.3201584,94.3850986 93.8399655,94.5949633 L93.8399655,93.4931794 C93.8399655,92.3739014 93.528086,91.4951064 92.9043175,90.8567681 C92.280549,90.2184298 91.3968902,89.8992655 90.2533147,89.8992655 C88.8844894,89.8992655 87.4463781,90.4326634 85.9389376,91.4994753 L85.1852211,90.0041973 C86.0688932,89.4095808 86.9438886,88.9636251 87.8102337,88.6663169 C88.6765788,88.3690087 89.5775642,88.2203568 90.5132169,88.2203568 C92.2459071,88.2203568 93.6147119,88.7012893 94.6196722,89.6631689 C95.6246325,90.6250485 96.1271052,91.980404 96.1271052,93.729276 L96.1271052,99.316894 C96.1271052,99.8590443 96.3696782,100.13886 96.8548314,100.156348 L96.8548314,102.150052 C96.6815624,102.18503 96.5169593,102.211263 96.3610172,102.228751 C96.2050751,102.24624 96.0577986,102.254984 95.9191834,102.254984 C95.5379915,102.254984 95.1654687,102.150054 94.8016038,101.940189 C94.4377388,101.730324 94.2384824,101.371811 94.2038286,100.864638 L94.1518482,99.8940189 C93.839964,100.313748 93.4847678,100.681006 93.086249,100.995803 C92.6877303,101.3106 92.2632276,101.572927 91.8127281,101.782791 C91.3622286,101.992656 90.898741,102.150052 90.4222511,102.254984 C89.9457613,102.359917 89.4736103,102.412382 89.005784,102.412382 L89.005784,102.412382 Z M89.5775689,100.681007 C90.3052988,100.681007 91.0156911,100.523611 91.7087672,100.208814 C92.4018433,99.8940173 92.9476325,99.5092712 93.3461513,99.0545645 C93.6753624,98.6698127 93.8399655,98.3112993 93.8399655,97.9790136 L93.8399655,95.9590766 C93.3028315,95.749212 92.735384,95.5874437 92.1376059,95.4737671 C91.5398278,95.3600904 90.9637169,95.3032529 90.409256,95.3032529 C89.2310267,95.3032529 88.2867247,95.5437192 87.5763217,96.024659 C86.8659187,96.5055988 86.5107225,97.165788 86.5107225,98.0052466 C86.5107225,98.355021 86.5800291,98.6916738 86.7186443,99.0152151 C86.8572595,99.3387564 87.0565159,99.6229439 87.3164195,99.8677859 C87.576323,100.112628 87.8968659,100.309373 88.2780577,100.458027 C88.6592496,100.606681 89.0924156,100.681007 89.5775689,100.681007 L89.5775689,100.681007 Z M105.905205,83 L108.192344,83 L108.192344,98.6086044 C108.192344,99.1157773 108.326626,99.5136397 108.595193,99.8022036 C108.86376,100.090767 109.240614,100.235047 109.725768,100.235047 C109.916363,100.235047 110.14161,100.204442 110.401513,100.143232 C110.661417,100.082021 110.90399,100.007695 111.12924,99.9202518 L111.493103,101.782791 C111.111911,101.94019 110.661418,102.071353 110.141611,102.176285 C109.621804,102.281218 109.162648,102.333683 108.764129,102.333683 C107.880457,102.333683 107.18306,102.0801 106.671916,101.572928 C106.160773,101.065755 105.905205,100.357472 105.905205,99.4480588 L105.905205,83 Z M134.687933,102.412382 C134.012184,102.412382 133.388425,102.303079 132.816637,102.08447 C132.244849,101.865861 131.75104,101.568557 131.335194,101.19255 C130.919349,100.816542 130.594474,100.370587 130.360561,99.8546695 C130.126648,99.3387522 130.009693,98.7922379 130.009693,98.2151102 C130.009693,97.5680275 130.148306,96.9777921 130.425537,96.4443861 C130.702767,95.9109802 131.096948,95.4562803 131.608092,95.0802728 C132.119235,94.7042653 132.725668,94.4157058 133.427407,94.2145855 C134.129147,94.0134652 134.895851,93.9129066 135.727542,93.9129066 C136.385964,93.9129066 137.05304,93.9741162 137.728789,94.0965373 C138.404538,94.2189583 139.002308,94.3850986 139.522115,94.5949633 L139.522115,93.4931794 C139.522115,92.3739014 139.210235,91.4951064 138.586467,90.8567681 C137.962698,90.2184298 137.079039,89.8992655 135.935464,89.8992655 C134.566639,89.8992655 133.128527,90.4326634 131.621087,91.4994753 L130.86737,90.0041973 C131.751042,89.4095808 132.626038,88.9636251 133.492383,88.6663169 C134.358728,88.3690087 135.259713,88.2203568 136.195366,88.2203568 C137.928056,88.2203568 139.296861,88.7012893 140.301821,89.6631689 C141.306782,90.6250485 141.809254,91.980404 141.809254,93.729276 L141.809254,99.316894 C141.809254,99.8590443 142.051827,100.13886 142.536981,100.156348 L142.536981,102.150052 C142.363712,102.18503 142.199108,102.211263 142.043166,102.228751 C141.887224,102.24624 141.739948,102.254984 141.601333,102.254984 C141.220141,102.254984 140.847618,102.150054 140.483753,101.940189 C140.119888,101.730324 139.920632,101.371811 139.885978,100.864638 L139.833997,99.8940189 C139.522113,100.313748 139.166917,100.681006 138.768398,100.995803 C138.369879,101.3106 137.945377,101.572927 137.494877,101.782791 C137.044378,101.992656 136.58089,102.150052 136.1044,102.254984 C135.627911,102.359917 135.15576,102.412382 134.687933,102.412382 L134.687933,102.412382 Z M135.259718,100.681007 C135.987448,100.681007 136.69784,100.523611 137.390916,100.208814 C138.083992,99.8940173 138.629782,99.5092712 139.0283,99.0545645 C139.357512,98.6698127 139.522115,98.3112993 139.522115,97.9790136 L139.522115,95.9590766 C138.984981,95.749212 138.417533,95.5874437 137.819755,95.4737671 C137.221977,95.3600904 136.645866,95.3032529 136.091405,95.3032529 C134.913176,95.3032529 133.968874,95.5437192 133.258471,96.024659 C132.548068,96.5055988 132.192872,97.165788 132.192872,98.0052466 C132.192872,98.355021 132.262178,98.6916738 132.400794,99.0152151 C132.539409,99.3387564 132.738665,99.6229439 132.998569,99.8677859 C133.258472,100.112628 133.579015,100.309373 133.960207,100.458027 C134.341399,100.606681 134.774565,100.681007 135.259718,100.681007 L135.259718,100.681007 Z M150.677696,95.2770199 C150.677696,94.3151403 150.842299,93.4057406 151.17151,92.5487933 C151.500721,91.691846 151.968541,90.9442145 152.574982,90.3058762 C153.181424,89.6675379 153.904811,89.1603726 154.745166,88.7843652 C155.585521,88.4083577 156.525491,88.2203568 157.565105,88.2203568 C158.916604,88.2203568 160.08182,88.5220327 161.06079,89.1253935 C162.03976,89.7287543 162.780474,90.5375955 163.282954,91.5519412 L161.047795,92.2602308 C160.701257,91.6131482 160.216111,91.1103551 159.592343,90.7518363 C158.968574,90.3933175 158.275509,90.2140609 157.513125,90.2140609 C156.889356,90.2140609 156.300251,90.3408522 155.74579,90.5944386 C155.191329,90.8480251 154.714846,91.2021663 154.316327,91.656873 C153.917809,92.1115797 153.601597,92.6449777 153.367684,93.2570829 C153.133771,93.8691881 153.016816,94.5424937 153.016816,95.2770199 C153.016816,95.9940575 153.138103,96.6673631 153.380679,97.296957 C153.623256,97.9265509 153.948131,98.4730652 154.355313,98.9365163 C154.762495,99.3999673 155.238978,99.7628528 155.784775,100.025184 C156.330572,100.287514 156.915347,100.418678 157.539115,100.418678 C157.937634,100.418678 158.331815,100.36184 158.72167,100.248164 C159.111526,100.134487 159.466722,99.981463 159.787269,99.7890871 C160.107817,99.5967112 160.389375,99.3737333 160.631952,99.1201469 C160.874528,98.8665605 161.047795,98.5911173 161.151756,98.293809 L163.386915,98.9758657 C163.178992,99.4830386 162.888771,99.9464827 162.516243,100.366212 C162.143714,100.785941 161.706217,101.144455 161.203737,101.441763 C160.701256,101.739071 160.142472,101.975165 159.527367,102.150052 C158.912262,102.32494 158.266845,102.412382 157.591096,102.412382 C156.568808,102.412382 155.63317,102.220009 154.784151,101.835257 C153.935133,101.450505 153.207414,100.934596 152.600973,100.287513 C151.994531,99.6404305 151.52238,98.8840547 151.184505,98.0183631 C150.846631,97.1526714 150.677696,96.2388995 150.677696,95.2770199 L150.677696,95.2770199 Z M171.111787,95.2770199 C171.111787,94.3151403 171.27639,93.4057406 171.605601,92.5487933 C171.934813,91.691846 172.402632,90.9442145 173.009074,90.3058762 C173.615515,89.6675379 174.338902,89.1603726 175.179257,88.7843652 C176.019612,88.4083577 176.959582,88.2203568 177.999196,88.2203568 C179.350695,88.2203568 180.515911,88.5220327 181.494881,89.1253935 C182.473851,89.7287543 183.214565,90.5375955 183.717046,91.5519412 L181.481886,92.2602308 C181.135348,91.6131482 180.650202,91.1103551 180.026434,90.7518363 C179.402665,90.3933175 178.7096,90.2140609 177.947216,90.2140609 C177.323448,90.2140609 176.734342,90.3408522 176.179881,90.5944386 C175.62542,90.8480251 175.148937,91.2021663 174.750419,91.656873 C174.3519,92.1115797 174.035689,92.6449777 173.801775,93.2570829 C173.567862,93.8691881 173.450907,94.5424937 173.450907,95.2770199 C173.450907,95.9940575 173.572194,96.6673631 173.81477,97.296957 C174.057347,97.9265509 174.382222,98.4730652 174.789404,98.9365163 C175.196586,99.3999673 175.673069,99.7628528 176.218866,100.025184 C176.764664,100.287514 177.349438,100.418678 177.973206,100.418678 C178.371725,100.418678 178.765906,100.36184 179.155761,100.248164 C179.545617,100.134487 179.900813,99.981463 180.221361,99.7890871 C180.541908,99.5967112 180.823466,99.3737333 181.066043,99.1201469 C181.308619,98.8665605 181.481886,98.5911173 181.585847,98.293809 L183.821006,98.9758657 C183.613084,99.4830386 183.322862,99.9464827 182.950334,100.366212 C182.577806,100.785941 182.140308,101.144455 181.637828,101.441763 C181.135348,101.739071 180.576563,101.975165 179.961458,102.150052 C179.346353,102.32494 178.700936,102.412382 178.025187,102.412382 C177.002899,102.412382 176.067261,102.220009 175.218243,101.835257 C174.369224,101.450505 173.641505,100.934596 173.035064,100.287513 C172.428622,99.6404305 171.956471,98.8840547 171.618597,98.0183631 C171.280722,97.1526714 171.111787,96.2388995 171.111787,95.2770199 L171.111787,95.2770199 Z M198.459278,102.412382 C197.436991,102.412382 196.501352,102.224381 195.652334,101.848374 C194.803315,101.472366 194.075596,100.960829 193.469155,100.313746 C192.862713,99.6666634 192.390562,98.9102876 192.052688,98.044596 C191.714813,97.1789044 191.545878,96.2651325 191.545878,95.3032529 C191.545878,94.3413733 191.714813,93.4319735 192.052688,92.5750262 C192.390562,91.718079 192.867045,90.9660753 193.48215,90.3189927 C194.097255,89.67191 194.829306,89.1603726 195.678324,88.7843652 C196.527342,88.4083577 197.462981,88.2203568 198.485268,88.2203568 C199.507555,88.2203568 200.438862,88.4127298 201.279217,88.7974816 C202.119572,89.1822335 202.834296,89.6937709 203.42341,90.3321091 C204.012525,90.9704474 204.467349,91.7137068 204.787897,92.5619098 C205.108445,93.4101127 205.268716,94.2889077 205.268716,95.1983211 C205.268716,95.390697 205.264385,95.5655816 205.255721,95.7229801 C205.247058,95.8803785 205.234063,96.0027977 205.216736,96.0902413 L193.962969,96.0902413 C194.01495,96.7723014 194.17089,97.3931417 194.430793,97.9527807 C194.690697,98.5124197 195.028566,98.9933523 195.444412,99.3955929 C195.860258,99.7978334 196.332409,100.112626 196.860879,100.339979 C197.38935,100.567332 197.948134,100.681007 198.537248,100.681007 C198.953094,100.681007 199.36027,100.62417 199.758789,100.510493 C200.157308,100.396817 200.529831,100.243792 200.876369,100.051417 C201.222907,99.8590407 201.530455,99.6229465 201.799021,99.343127 C202.067588,99.0633075 202.271177,98.7485152 202.409792,98.3987408 L204.385049,98.9496327 C204.159799,99.4568056 203.852251,99.9202497 203.462396,100.339979 C203.07254,100.759708 202.622048,101.122594 202.110904,101.428646 C201.599761,101.734699 201.032313,101.975165 200.408545,102.150052 C199.784776,102.32494 199.135027,102.412382 198.459278,102.412382 L198.459278,102.412382 Z M203.111528,94.3850997 C203.059547,93.7380171 202.899276,93.1390374 202.630709,92.5881427 C202.362142,92.037248 202.024272,91.5694318 201.61709,91.18468 C201.209908,90.7999281 200.737757,90.4982522 200.200623,90.2796432 C199.663489,90.0610342 199.09171,89.9517314 198.485268,89.9517314 C197.878826,89.9517314 197.307047,90.0610342 196.769913,90.2796432 C196.232779,90.4982522 195.760628,90.8043002 195.353446,91.1977964 C194.946264,91.5912926 194.617058,92.0591089 194.365818,92.6012592 C194.114578,93.1434095 193.962969,93.7380171 193.910989,94.3850997 L203.111528,94.3850997 Z M213.851266,83 L216.138405,83 L216.138405,98.6086044 C216.138405,99.1157773 216.272687,99.5136397 216.541254,99.8022036 C216.809821,100.090767 217.186675,100.235047 217.671828,100.235047 C217.862424,100.235047 218.087671,100.204442 218.347574,100.143232 C218.607478,100.082021 218.850051,100.007695 219.0753,99.9202518 L219.439164,101.782791 C219.057972,101.94019 218.607479,102.071353 218.087672,102.176285 C217.567865,102.281218 217.108709,102.333683 216.71019,102.333683 C215.826518,102.333683 215.129121,102.0801 214.617977,101.572928 C214.106834,101.065755 213.851266,100.357472 213.851266,99.4480588 L213.851266,83 Z M233.167777,102.412382 C232.14549,102.412382 231.209851,102.224381 230.360833,101.848374 C229.511815,101.472366 228.784096,100.960829 228.177654,100.313746 C227.571213,99.6666634 227.099062,98.9102876 226.761187,98.044596 C226.423312,97.1789044 226.254378,96.2651325 226.254378,95.3032529 C226.254378,94.3413733 226.423312,93.4319735 226.761187,92.5750262 C227.099062,91.718079 227.575544,90.9660753 228.190649,90.3189927 C228.805754,89.67191 229.537805,89.1603726 230.386823,88.7843652 C231.235841,88.4083577 232.17148,88.2203568 233.193767,88.2203568 C234.216055,88.2203568 235.147362,88.4127298 235.987716,88.7974816 C236.828071,89.1822335 237.542795,89.6937709 238.13191,90.3321091 C238.721024,90.9704474 239.175849,91.7137068 239.496397,92.5619098 C239.816944,93.4101127 239.977216,94.2889077 239.977216,95.1983211 C239.977216,95.390697 239.972884,95.5655816 239.964221,95.7229801 C239.955557,95.8803785 239.942562,96.0027977 239.925235,96.0902413 L228.671469,96.0902413 C228.723449,96.7723014 228.879389,97.3931417 229.139293,97.9527807 C229.399196,98.5124197 229.737066,98.9933523 230.152911,99.3955929 C230.568757,99.7978334 231.040908,100.112626 231.569378,100.339979 C232.097849,100.567332 232.656633,100.681007 233.245748,100.681007 C233.661593,100.681007 234.06877,100.62417 234.467288,100.510493 C234.865807,100.396817 235.23833,100.243792 235.584868,100.051417 C235.931406,99.8590407 236.238954,99.6229465 236.507521,99.343127 C236.776088,99.0633075 236.979676,98.7485152 237.118291,98.3987408 L239.093548,98.9496327 C238.868298,99.4568056 238.56075,99.9202497 238.170895,100.339979 C237.78104,100.759708 237.330547,101.122594 236.819404,101.428646 C236.30826,101.734699 235.740812,101.975165 235.117044,102.150052 C234.493275,102.32494 233.843526,102.412382 233.167777,102.412382 L233.167777,102.412382 Z M237.820027,94.3850997 C237.768046,93.7380171 237.607775,93.1390374 237.339208,92.5881427 C237.070641,92.037248 236.732771,91.5694318 236.325589,91.18468 C235.918407,90.7999281 235.446256,90.4982522 234.909122,90.2796432 C234.371988,90.0610342 233.800209,89.9517314 233.193767,89.9517314 C232.587326,89.9517314 232.015547,90.0610342 231.478413,90.2796432 C230.941279,90.4982522 230.469128,90.8043002 230.061945,91.1977964 C229.654763,91.5912926 229.325557,92.0591089 229.074317,92.6012592 C228.823077,93.1434095 228.671469,93.7380171 228.619488,94.3850997 L237.820027,94.3850997 Z M255.681086,90.4763903 C254.537511,90.5113678 253.528234,90.8086716 252.653225,91.3683106 C251.778217,91.9279496 251.158789,92.706186 250.794924,93.703043 L250.794924,102.150052 L248.507785,102.150052 L248.507785,88.4564533 L250.638983,88.4564533 L250.638983,91.6306401 C251.106809,90.6862492 251.721905,89.9036407 252.484289,89.2827912 C253.246672,88.6619416 254.061025,88.3515215 254.92737,88.3515215 L255.369203,88.3515215 C255.490492,88.3515215 255.594452,88.3602657 255.681086,88.3777545 L255.681086,90.4763903 Z M267.382462,102.412382 C266.706713,102.412382 266.082954,102.303079 265.511166,102.08447 C264.939378,101.865861 264.445569,101.568557 264.029723,101.19255 C263.613878,100.816542 263.289003,100.370587 263.05509,99.8546695 C262.821177,99.3387522 262.704222,98.7922379 262.704222,98.2151102 C262.704222,97.5680275 262.842835,96.9777921 263.120066,96.4443861 C263.397296,95.9109802 263.791477,95.4562803 264.302621,95.0802728 C264.813764,94.7042653 265.420197,94.4157058 266.121936,94.2145855 C266.823676,94.0134652 267.59038,93.9129066 268.422071,93.9129066 C269.080493,93.9129066 269.747569,93.9741162 270.423318,94.0965373 C271.099068,94.2189583 271.696837,94.3850986 272.216644,94.5949633 L272.216644,93.4931794 C272.216644,92.3739014 271.904764,91.4951064 271.280996,90.8567681 C270.657227,90.2184298 269.773569,89.8992655 268.629993,89.8992655 C267.261168,89.8992655 265.823056,90.4326634 264.315616,91.4994753 L263.561899,90.0041973 C264.445571,89.4095808 265.320567,88.9636251 266.186912,88.6663169 C267.053257,88.3690087 267.954242,88.2203568 268.889895,88.2203568 C270.622585,88.2203568 271.99139,88.7012893 272.99635,89.6631689 C274.001311,90.6250485 274.503783,91.980404 274.503783,93.729276 L274.503783,99.316894 C274.503783,99.8590443 274.746356,100.13886 275.23151,100.156348 L275.23151,102.150052 C275.058241,102.18503 274.893638,102.211263 274.737695,102.228751 C274.581753,102.24624 274.434477,102.254984 274.295862,102.254984 C273.91467,102.254984 273.542147,102.150054 273.178282,101.940189 C272.814417,101.730324 272.615161,101.371811 272.580507,100.864638 L272.528526,99.8940189 C272.216642,100.313748 271.861446,100.681006 271.462927,100.995803 C271.064409,101.3106 270.639906,101.572927 270.189406,101.782791 C269.738907,101.992656 269.275419,102.150052 268.798929,102.254984 C268.32244,102.359917 267.850289,102.412382 267.382462,102.412382 L267.382462,102.412382 Z M267.954247,100.681007 C268.681977,100.681007 269.392369,100.523611 270.085445,100.208814 C270.778522,99.8940173 271.324311,99.5092712 271.72283,99.0545645 C272.052041,98.6698127 272.216644,98.3112993 272.216644,97.9790136 L272.216644,95.9590766 C271.67951,95.749212 271.112062,95.5874437 270.514284,95.4737671 C269.916506,95.3600904 269.340395,95.3032529 268.785934,95.3032529 C267.607705,95.3032529 266.663403,95.5437192 265.953,96.024659 C265.242597,96.5055988 264.887401,97.165788 264.887401,98.0052466 C264.887401,98.355021 264.956707,98.6916738 265.095323,99.0152151 C265.233938,99.3387564 265.433194,99.6229439 265.693098,99.8677859 C265.953001,100.112628 266.273544,100.309373 266.654736,100.458027 C267.035928,100.606681 267.469094,100.681007 267.954247,100.681007 L267.954247,100.681007 Z M291.065331,101.467996 C290.926716,101.537951 290.744786,101.621021 290.519537,101.717209 C290.294287,101.813397 290.038719,101.909583 289.752825,102.005771 C289.466931,102.101959 289.155052,102.180657 288.817177,102.241868 C288.479302,102.303078 288.128438,102.333683 287.764573,102.333683 C286.932882,102.333683 286.213826,102.101961 285.607384,101.63851 C285.000943,101.175059 284.697727,100.45366 284.697727,99.4742917 L284.697727,90.2665268 L282.852421,90.2665268 L282.852421,88.4564533 L284.697727,88.4564533 L284.697727,83.8919203 L286.984866,83.8919203 L286.984866,88.4564533 L290.025722,88.4564533 L290.025722,90.2665268 L286.984866,90.2665268 L286.984866,98.7660021 C287.01952,99.273175 287.184123,99.6404326 287.47868,99.8677859 C287.773238,100.095139 288.119771,100.208814 288.518289,100.208814 C288.968789,100.208814 289.380297,100.134488 289.752825,99.9858342 C290.125353,99.8371801 290.380921,99.719133 290.519537,99.6316894 L291.065331,101.467996 Z M299.076096,102.150052 L299.076096,88.4564533 L301.363235,88.4564533 L301.363235,102.150052 L299.076096,102.150052 Z M299.076096,85.8856243 L299.076096,83 L301.363235,83 L301.363235,85.8856243 L299.076096,85.8856243 Z M316.963145,102.412382 C315.940858,102.412382 315.009551,102.220009 314.169196,101.835257 C313.328841,101.450505 312.609786,100.934596 312.012007,100.287513 C311.414229,99.6404305 310.950742,98.8884268 310.62153,98.0314795 C310.292319,97.1745323 310.127716,96.2738767 310.127716,95.3294858 C310.127716,94.3676062 310.296651,93.4582065 310.634526,92.6012592 C310.9724,91.7443119 311.440219,90.9923082 312.037998,90.3452256 C312.635776,89.698143 313.354831,89.1822335 314.195186,88.7974816 C315.035541,88.4127298 315.958185,88.2203568 316.963145,88.2203568 C317.968105,88.2203568 318.895081,88.4127298 319.744099,88.7974816 C320.593117,89.1822335 321.316504,89.698143 321.914282,90.3452256 C322.512061,90.9923082 322.97988,91.7443119 323.317755,92.6012592 C323.655629,93.4582065 323.824564,94.3676062 323.824564,95.3294858 C323.824564,96.2738767 323.659961,97.1745323 323.33075,98.0314795 C323.001539,98.8884268 322.533719,99.6404305 321.927278,100.287513 C321.320836,100.934596 320.597449,101.450505 319.757094,101.835257 C318.916739,102.220009 317.985432,102.412382 316.963145,102.412382 L316.963145,102.412382 Z M312.466836,95.3557188 C312.466836,96.0727563 312.583791,96.7373177 312.817704,97.3494229 C313.051617,97.9615281 313.37216,98.494926 313.779343,98.9496327 C314.186525,99.4043395 314.663007,99.7628528 315.208805,100.025184 C315.754602,100.287514 316.339376,100.418678 316.963145,100.418678 C317.586913,100.418678 318.171688,100.287514 318.717485,100.025184 C319.263282,99.7628528 319.744097,99.3999673 320.159942,98.9365163 C320.575788,98.4730652 320.900663,97.930923 321.134576,97.3100735 C321.368489,96.6892239 321.485444,96.0202904 321.485444,95.3032529 C321.485444,94.6037041 321.368489,93.9435148 321.134576,93.3226653 C320.900663,92.7018157 320.575788,92.1596735 320.159942,91.6962225 C319.744097,91.2327714 319.263282,90.8698859 318.717485,90.6075551 C318.171688,90.3452243 317.586913,90.2140609 316.963145,90.2140609 C316.339376,90.2140609 315.754602,90.3495964 315.208805,90.6206716 C314.663007,90.8917467 314.186525,91.2590043 313.779343,91.7224554 C313.37216,92.1859065 313.051617,92.7280487 312.817704,93.3488982 C312.583791,93.9697478 312.466836,94.6386813 312.466836,95.3557188 L312.466836,95.3557188 Z M344.336626,102.150052 L342.049486,102.150052 L342.049486,94.4900315 C342.049486,93.020979 341.828571,91.9541831 341.386735,91.2896118 C340.944899,90.6250404 340.273492,90.2927597 339.372493,90.2927597 C338.904667,90.2927597 338.436847,90.3845741 337.969021,90.5682057 C337.501195,90.7518372 337.059365,91.0010477 336.64352,91.3158447 C336.227674,91.6306417 335.863814,92.0066435 335.55193,92.4438615 C335.240046,92.8810795 335.006136,93.3620121 334.850194,93.8866737 L334.850194,102.150052 L332.563055,102.150052 L332.563055,88.4564533 L334.642272,88.4564533 L334.642272,91.3945435 C335.179406,90.432664 335.954774,89.6631718 336.968397,89.0860441 C337.982021,88.5089163 339.086595,88.2203568 340.282151,88.2203568 C341.061861,88.2203568 341.711611,88.3646365 342.231418,88.6532004 C342.751225,88.9417643 343.167064,89.3439988 343.478948,89.8599161 C343.790833,90.3758333 344.011747,90.9835572 344.141699,91.683106 C344.271651,92.3826548 344.336626,93.1434027 344.336626,93.9653725 L344.336626,102.150052 Z" id="digital-acceleration"></path>
                </g>
            </g>
        </g>
    </g>
</svg>